<?xml version="1.0" encoding="UTF-8" standalone="no"?>
<svg
   xmlns:svg="http://www.w3.org/2000/svg"
   xmlns="http://www.w3.org/2000/svg"
   version="1.1"
   width="652.07336"
   height="177.80762"
   id="svg3140">
  <defs
     id="defs3142" />
  <g
     transform="translate(-23.96331,-443.45837)"
     id="layer1">
    <path
       d="m 102.94418,458.36587 -57.090745,0 c -3.84575,0 -6.359875,2.95875 -6.359875,6.95125 l 0,17.485 59.142125,0 -2.628375,14.90625 -56.51375,0 0,40.41 -15.53025,0 0,-73.65625 c 0,-11.39 5.32475,-21.00375 20.11525,-21.00375 l 61.49437,0 -2.62875,14.9075"
       id="path22"
       style="fill:#c8c7c7;fill-opacity:1;fill-rule:nonzero;stroke:none" />
    <path
       d="m 339.59544,458.36587 -57.09125,0 c -3.845,0 -6.36,2.95875 -6.36,6.95125 l 0,17.485 59.14249,0 -2.62874,14.90625 -56.51376,0 0,40.41 -15.53,0 0,-73.65625 c 0,-11.39 5.32375,-21.00375 20.115,-21.00375 l 61.495,0 -2.62875,14.9075 m -220.825,-14.90625 0,69.3675 c 0,16.27 4.14125,25.2925 23.22125,25.2925 l 102.94375,0 0,-94.66 -15.6775,0 0,80.46125 -31.57875,0 c -5.02875,0 -6.95125,-1.775 -6.95125,-6.50875 l 0,-73.9525 -15.67875,0 0,80.46125 -32.0225,0 c -6.21125,0 -8.43,-2.21875 -8.43,-8.43125 l 0,-72.03 -15.82625,0"
       id="path26"
       style="fill:#044fa3;fill-opacity:1;fill-rule:nonzero;stroke:none" />
    <path
       d="m 670.52669,618.11024 c 0,2.05375 0.90125,3.05513 2.70499,3.05513 1.90251,0 2.80501,-1.00138 2.80501,-3.00488 0,-2.15375 -0.9025,-3.15575 -2.755,-3.15575 -1.85375,0 -2.755,1.002 -2.755,3.1055 m -25.19625,1.80325 c 3.405,0.90138 6.36,1.30225 9.315,1.30225 6.26125,0 10.21875,-3.05525 10.21875,-7.86387 0,-2.2035 -0.90125,-4.207 -2.555,-5.35888 -1.4025,-1.00187 -2.65501,-1.50287 -5.81,-2.3545 -2.905,-0.75087 -3.50625,-0.95162 -4.3575,-1.40225 -1.0525,-0.55087 -1.6525,-1.45262 -1.6525,-2.55475 0,-2.05325 1.8025,-3.25537 4.85875,-3.25537 2.10375,0 4.55749,0.55125 7.56249,1.70312 l 0,-4.40775 c -0.70125,0 -0.85125,0 -1.90375,-0.1 -2.855,-0.30087 -4.7575,-0.40087 -6.21,-0.40087 -5.61,0 -9.16625,2.80462 -9.16625,7.1625 0,2.0035 0.85125,3.80675 2.35376,4.90875 1.1525,0.85112 2.305,1.352 4.80874,2.05325 1.5525,0.45062 2.605,0.751 3.05626,0.90137 0.75,0.20063 1.40125,0.45113 2.00249,0.80125 0.45126,0.20063 0.80125,0.45113 1.10126,0.80175 0.55125,0.601 0.85249,1.40238 0.85249,2.25388 0,2.354 -2.10374,3.80612 -5.55999,3.80612 -2.755,0 -5.45875,-0.70062 -8.915,-2.25337 l 0,4.25737 m -10.6,-3.30575 c 0,2.0035 0.05,3.05525 0.19999,4.05713 l 4.65751,0 c -0.3,-1.55275 -0.45001,-3.206 -0.60125,-5.81 -0.10001,-2.40437 -0.2,-7.16263 -0.2,-12.07125 0,-6.51125 0.15125,-14.7755 0.25125,-17.38 l 0,-0.3505 -5.11,0 0,0.40037 c 0.05,1.20213 0.10125,2.9555 0.15125,5.25925 0.05,1.8535 0.1,3.30563 0.1,4.25738 l 0,0.55075 -0.05,0.60113 c -0.75125,-0.25051 -1.0025,-0.30038 -1.50375,-0.45075 -1.25125,-0.30025 -2.85375,-0.45063 -4.3575,-0.45063 -7.5625,0 -11.82,4.90863 -11.82,13.57363 0,8.3145 3.45625,12.4215 10.46875,12.4215 4.3075,0 6.41,-1.2525 7.81375,-4.608 z m -0.60125,-17.17962 0.05,0.55075 0,2.15387 c 0,2.60438 -0.05,5.40913 -0.10001,7.9135 -0.05,1.55275 -0.20124,2.90525 -0.55125,4.00688 -0.65125,2.30412 -2.855,3.80662 -5.55999,3.80662 -4.2575,0 -6.31125,-3.05512 -6.31125,-9.416 0,-6.712 2.405,-9.96725 7.36374,-9.96725 1.7025,0 3.15501,0.30025 5.10875,0.95163 m -46.28124,21.23675 5.15874,0 -0.05,-0.50088 -0.05,-4.50787 -0.1,-5.4595 0.05,-4.708 c 0,-2.9555 0.35001,-4.25775 1.25251,-5.25925 1.10124,-1.15188 2.60375,-1.70312 4.90874,-1.70312 1.95375,0 3.30501,0.40087 4.25751,1.20212 1.15125,1.002 1.5525,2.30375 1.5525,5.35937 l -0.0512,4.50788 -0.1,7.313 0,0.55025 c 0,1.55275 0,1.95362 0.15125,3.206 l 5.30875,0 c -0.30125,-1.30225 -0.35125,-1.80313 -0.35125,-3.65625 -0.05,-2.3545 -0.1,-5.86025 -0.1,-8.56488 l 0,-2.50437 c 0,-0.501 0.05,-0.95175 0.05,-1.45263 0,-3.50587 -0.2,-4.608 -0.85125,-5.81012 -0.4,-0.80125 -1.10125,-1.50238 -1.9525,-2.00338 -1.60375,-1.002 -3.6075,-1.45262 -6.16125,-1.45262 -3.75625,0 -6.41125,1.00187 -8.21375,3.05512 l 0,-0.55075 -0.05,-1.45262 0.05,-0.501 -4.70875,0 c 0.05,0.2505 0.05,0.40087 0.05,0.501 0.05,0.8515 0.1,2.80512 0.15,5.86037 l 0.0513,6.11075 -0.0513,6.31063 c -0.05,2.80512 -0.1,4.708 -0.15,5.60987 0,0.1 0,0.30025 -0.05,0.50088 m -30.43625,-12.42138 c 0,8.9155 3.805,13.0225 12.02,13.0225 8.16375,0 12.12125,-4.107 12.12125,-12.72212 0,-9.16613 -3.75625,-13.32325 -12.02125,-13.32325 -8.315,0 -12.12,4.10737 -12.12,13.02287 z m 5.1575,-0.0503 c 0,-6.86237 2.00375,-9.71675 6.8625,-9.71675 4.80875,0 6.9625,2.9545 6.9625,9.46625 0,7.16263 -2.00375,10.06738 -6.8625,10.06738 -4.90875,0 -6.9625,-2.855 -6.9625,-9.81688 m -18.52125,12.47163 5.16,0 -0.0512,-0.50088 c -0.0488,-1.35262 -0.1,-3.45612 -0.1,-6.31112 0,-2.55463 -0.05,-4.65763 -0.05,-6.26075 -0.05,-2.40425 -0.1,-3.957 -0.1,-4.7085 l 0,-4.35738 0.60125,0 2.705,0.0503 c 1.8525,0.0504 2.20375,0.10013 3.40625,0.15038 l 0.35,-3.00538 -0.45125,0 c -1.4525,0.10013 -3.205,0.15 -5.20875,0.15 l -1.4025,0 0,-0.5005 0.05,-2.40437 c 0.05,-2.50438 0.15125,-3.10538 0.85125,-3.85638 0.65125,-0.65137 1.5025,-0.95162 2.855,-0.95162 1.2525,0 2.505,0.20012 3.9575,0.601 l 0,-3.80713 c -0.55125,0.0502 -0.70125,0.0502 -1.3025,0.0502 l -2.705,0 c -2.905,0 -4.4575,0.2505 -5.66,0.90138 -1.8025,0.95175 -2.60375,2.8555 -2.60375,6.01075 l 0,3.90675 c -0.30125,0.0499 -0.40125,0.0499 -0.55125,0.0499 -0.2,0 -0.50125,0 -0.95125,-0.0499 l -0.9025,0 c -0.1,0 -0.25,-0.0503 -0.45,-0.0503 l 0,2.90525 0.45,-0.0498 0.9525,-0.0504 1.00125,-0.0503 0.45125,0 0,0.501 -0.05,4.15725 -0.05,4.558 -0.10126,6.16075 -0.1,6.26075 0,0.50088 m -25.9975,-0.75138 c 3.40625,0.90138 6.36125,1.30225 9.31624,1.30225 6.26125,0 10.2175,-3.05525 10.2175,-7.86387 0,-2.2035 -0.90125,-4.207 -2.55375,-5.35888 -1.4025,-1.00187 -2.655,-1.50287 -5.81125,-2.3545 -2.90375,-0.75087 -3.505,-0.95162 -4.3575,-1.40225 -1.05125,-0.55087 -1.6525,-1.45262 -1.6525,-2.55475 0,-2.05325 1.80375,-3.25537 4.85875,-3.25537 2.10375,0 4.5575,0.55125 7.56375,1.70312 l 0,-4.40775 c -0.7025,0 -0.8525,0 -1.90375,-0.1 -2.855,-0.30087 -4.75875,-0.40087 -6.21125,-0.40087 -5.61,0 -9.16625,2.80462 -9.16625,7.1625 0,2.0035 0.8525,3.80675 2.355,4.90875 1.15125,0.85112 2.30375,1.352 4.80875,2.05325 1.5525,0.45062 2.60375,0.751 3.055,0.90137 0.75,0.20063 1.4025,0.45113 2.0025,0.80125 0.45125,0.20063 0.80125,0.45113 1.1025,0.80175 0.55125,0.601 0.85125,1.40238 0.85125,2.25388 0,2.354 -2.10375,3.80612 -5.55875,3.80612 -2.755,0 -5.46,-0.70062 -8.91625,-2.25337 l 0,4.25737 m -4.4275,0.50088 0,-3.15525 c -1.55375,0.40037 -2.455,0.5005 -3.45625,0.5005 -2.00375,0 -3.055,-0.851 -3.25625,-2.70463 -0.1,-0.90137 -0.1,-1.30225 -0.15,-4.25725 l 0,-3.40575 -0.05,-3.65675 0,-5.10837 3.50625,0 c 1.70375,0 2.755,0.0498 3.205,0.0498 0.15,0 0.15,0 0.35125,0.0502 l 0.35,-3.05563 c -1.40125,0.15038 -1.9525,0.15038 -3.85625,0.20025 l -3.055,0.0503 -0.50125,0 0,-0.80125 c 0,-0.30075 0,-1.10212 0.05,-2.40387 l 0.1,-3.35588 0.05,-0.60112 -5.00875,1.40237 0.0512,0.40038 0.05,2.80475 0,2.50437 -1.6025,0 c -0.30125,-0.0499 -0.6525,-0.0499 -1.0525,-0.0499 l -0.35125,-0.0503 0,2.90525 0.35125,0 1.3025,-0.0498 1.4025,0 0,0.601 0.05,3.65575 -0.05,3.95712 -0.05,3.65625 c -0.10125,2.6045 -0.15125,4.30763 -0.15125,5.059 0,3.80663 2.10375,5.65975 6.31125,5.65975 1.90375,0 3.30625,-0.20025 5.46,-0.80137 m -29.74125,0.2505 5.15875,0 -0.0487,-0.50088 c -0.05,-1.35262 -0.10125,-3.45612 -0.10125,-6.31112 0,-2.55463 -0.0487,-4.65763 -0.0487,-6.26075 -0.0513,-2.40425 -0.1,-3.957 -0.1,-4.7085 l 0,-4.35738 0.6,0 2.705,0.0503 c 1.85375,0.0504 2.20375,0.10013 3.40625,0.15038 l 0.35,-3.00538 -0.45,0 c -1.4525,0.10013 -3.20625,0.15 -5.21,0.15 l -1.40125,0 0,-0.5005 0.0487,-2.40437 c 0.0513,-2.50438 0.15125,-3.10538 0.85125,-3.85638 0.65125,-0.65137 1.50375,-0.95162 2.855,-0.95162 1.2525,0 2.505,0.20012 3.9575,0.601 l 0,-3.80713 c -0.55125,0.0502 -0.70125,0.0502 -1.3025,0.0502 l -2.705,0 c -2.905,0 -4.4575,0.2505 -5.65875,0.90138 -1.80375,0.95175 -2.605,2.8555 -2.605,6.01075 l 0,3.90675 c -0.30125,0.0499 -0.40125,0.0499 -0.55124,0.0499 -0.20001,0 -0.50126,0 -0.95126,-0.0499 l -0.90125,0 c -0.1,0 -0.25125,-0.0503 -0.45125,-0.0503 l 0,2.90525 0.45125,-0.0498 0.95126,-0.0504 1.00124,-0.0503 0.45125,0 0,0.501 -0.05,4.15725 -0.05,4.558 -0.1,6.16075 -0.10125,6.26075 0,0.50088 m -13.345,-4.10688 c 0,1.75238 0.1,3.105 0.3,4.10688 l 4.4575,0 c -0.50125,-2.204 -0.70125,-5.45938 -0.70125,-11.06925 l 0,-0.70125 0.05,-4.55813 0,-0.601 c 0,-3.90625 -0.30125,-5.05862 -1.6525,-6.31062 -1.65375,-1.55313 -3.9575,-2.204 -8.015,-2.204 -1.40124,0 -2.90374,0.1 -4.40624,0.2505 -1.70376,0.20012 -2.95625,0.30025 -3.7575,0.30025 -0.1,0 -0.25,0 -0.45,-0.0499 l -0.25125,4.1075 c 3.00624,-0.90187 5.50999,-1.30275 8.06375,-1.30275 4.05749,0 5.71,1.20213 5.71,4.25738 l 0,1.8535 c -1.65251,-0.10013 -4.10751,-0.20075 -5.40875,-0.20075 -7.16251,0 -10.91876,2.8555 -10.91876,8.41512 0,5.45888 3.05501,8.36425 8.76501,8.36425 4.05624,0 6.51124,-1.35262 8.21499,-4.65775 z m -0.6525,-9.01612 0,0.2505 c 0,2.55462 -0.25,4.55762 -0.70125,6.11087 -0.75125,2.40425 -2.95499,3.9565 -5.70875,3.9565 -3.15625,0 -5.05875,-1.90287 -5.05875,-5.05862 0,-3.80613 2.30375,-5.4595 7.6125,-5.4595 1.0525,0 1.80375,0 3.30625,0.1505 l 0.55,0.0497 m -44.34375,13.123 5.15875,0 -0.05,-0.50088 c -0.05,-1.30225 -0.1,-3.40587 -0.1,-6.26075 -0.0512,-2.75487 -0.0512,-5.109 -0.1,-7.01225 l 0,-0.55125 c 0,-3.356 0.35,-4.90875 1.20125,-5.96 1.00125,-1.20212 2.705,-1.8535 5.00875,-1.8535 4.3075,0 5.86125,1.70313 5.86125,6.36138 l 0,0.40037 -0.20125,9.81738 0,1.15187 c 0,2.20363 0,2.75438 0.20125,4.40763 l 5.25875,0 c -0.35125,-3.05563 -0.45125,-5.81 -0.45125,-10.41838 0,-1.85312 0,-3.8565 0.05,-6.11037 l 0,-0.55125 c 0,-3.25488 -0.4,-4.80813 -1.5525,-5.96 -1.5525,-1.603 -4.1575,-2.45463 -7.46375,-2.45463 -3.355,0 -5.65875,0.80175 -7.7625,2.65488 0,-0.4005 -0.05,-0.70125 -0.05,-0.85163 0,-0.30025 0.05,-2.05375 0.1,-5.15862 l 0.15,-6.26125 0.05,-0.5005 -5.30875,0 0.05,0.5005 0.15,9.46625 0.05,8.565 -0.05,8.51512 -0.15,8.064 -0.05,0.50088 m -6.8225,-25.04338 -0.55125,-0.0504 c -1.3025,-0.15038 -3.055,-0.2505 -3.85625,-0.30025 -0.75125,-0.0503 -1.5025,-0.0503 -2.30375,-0.0503 -4.4575,0 -7.1125,0.8515 -8.96625,2.85487 -2.15375,2.3545 -3.255,5.81013 -3.255,10.21788 0,4.35737 0.95125,7.51312 2.955,9.7665 2.00375,2.254 4.3075,3.15587 8.26375,3.15587 2.755,0 5.36,-0.45075 7.76375,-1.30225 l 0,-3.80675 c -1.7525,1.002 -4.5575,1.70275 -6.8125,1.70275 -4.7075,0 -7.06125,-3.25537 -7.06125,-9.71637 0,-6.86225 2.00375,-9.56688 7.1625,-9.56688 2.10375,0 4.3575,0.40088 6.66125,1.15238 l 0,-4.05713 m -43.47875,24.292 c 3.40626,0.90138 6.36126,1.30225 9.31625,1.30225 6.26125,0 10.21875,-3.05525 10.21875,-7.86387 0,-2.2035 -0.90249,-4.207 -2.555,-5.35888 -1.4025,-1.00187 -2.655,-1.50287 -5.81,-2.3545 -2.905,-0.75087 -3.50625,-0.95162 -4.3575,-1.40225 -1.05249,-0.55087 -1.65374,-1.45262 -1.65374,-2.55475 0,-2.05325 1.80375,-3.25537 4.85875,-3.25537 2.10375,0 4.55874,0.55125 7.56374,1.70312 l 0,-4.40775 c -0.70124,0 -0.85125,0 -1.90375,-0.1 -2.85375,-0.30087 -4.7575,-0.40087 -6.21125,-0.40087 -5.60875,0 -9.165,2.80462 -9.165,7.1625 0,2.0035 0.85125,3.80675 2.35375,4.90875 1.1525,0.85112 2.30375,1.352 4.80875,2.05325 1.5525,0.45062 2.60375,0.751 3.055,0.90137 0.75125,0.20063 1.4025,0.45113 2.00375,0.80125 0.45,0.20063 0.80125,0.45113 1.10125,0.80175 0.55125,0.601 0.85125,1.40238 0.85125,2.25388 0,2.354 -2.1025,3.80612 -5.55875,3.80612 -2.755,0 -5.46,-0.70062 -8.91625,-2.25337 l 0,4.25737 m -28.39875,0.75138 5.15875,0 -0.05,-0.50088 -0.05,-4.50787 -0.10125,-5.4595 0.0513,-4.708 c 0,-2.9555 0.35,-4.25775 1.25125,-5.25925 1.1025,-1.15188 2.605,-1.70312 4.90875,-1.70312 1.95375,0 3.30625,0.40087 4.2575,1.20212 1.1525,1.002 1.5525,2.30375 1.5525,5.35937 l -0.05,4.50788 -0.1,7.313 0,0.55025 c 0,1.55275 0,1.95362 0.15,3.206 l 5.30875,0 c -0.3,-1.30225 -0.35,-1.80313 -0.35,-3.65625 -0.05,-2.3545 -0.1,-5.86025 -0.1,-8.56488 l 0,-2.50437 c 0,-0.501 0.05,-0.95175 0.05,-1.45263 0,-3.50587 -0.20001,-4.608 -0.85125,-5.81012 -0.40126,-0.80125 -1.10251,-1.50238 -1.95375,-2.00338 -1.6025,-1.002 -3.60625,-1.45262 -6.16125,-1.45262 -3.75625,0 -6.41,1.00187 -8.21375,3.05512 l 0,-0.55075 -0.05,-1.45262 0.05,-0.501 -4.7075,0 c 0.05,0.2505 0.05,0.40087 0.05,0.501 0.05,0.8515 0.1,2.80512 0.15,5.86037 l 0.05,6.11075 -0.05,6.31063 c -0.05,2.80512 -0.1,4.708 -0.15,5.60987 0,0.1 0,0.30025 -0.05,0.50088 m -7.50626,-0.70163 0,-4.00637 c -2.75499,1.252 -5.40874,1.85262 -8.11374,1.85262 -5.51,0 -8.06376,-3.105 -8.06376,-9.71637 l 0,-0.8515 0.55001,-0.0504 c 0.95249,-0.0497 3.40625,-0.0497 7.36375,-0.0497 4.7075,0 7.5125,0 8.46375,0.0497 l 0.55125,0.0504 c 0.05,-0.90188 0.05,-1.30225 0.05,-2.15388 0,-3.456 -0.45001,-5.25875 -1.70251,-6.86175 -1.60249,-2.0035 -4.45749,-3.00537 -8.415,-3.00537 -8.11375,0 -11.87,4.2075 -11.87,13.17275 0,8.66512 3.90625,12.82237 12.02,12.82237 3.05625,0 6.36125,-0.45075 9.16625,-1.2525 z m -15.97749,-15.627 c 0.3,-4.15662 2.25375,-5.95987 6.26125,-5.95987 4.05625,0 5.71,1.6025 5.71,5.60937 l 0,0.3505 -0.45125,0 c -0.85125,0.0504 -2.40375,0.0504 -4.60875,0.0504 l -0.85,0 c -3.15625,0 -5.00876,0 -5.56,-0.0504 l -0.50125,0 m -29.75375,15.57725 c 3.40499,0.90138 6.35999,1.30225 9.315,1.30225 6.26125,0 10.21875,-3.05525 10.21875,-7.86387 0,-2.2035 -0.9025,-4.207 -2.555,-5.35888 -1.4025,-1.00187 -2.655,-1.50287 -5.81,-2.3545 -2.905,-0.75087 -3.50625,-0.95162 -4.3575,-1.40225 -1.0525,-0.55087 -1.6525,-1.45262 -1.6525,-2.55475 0,-2.05325 1.8025,-3.25537 4.8575,-3.25537 2.105,0 4.55875,0.55125 7.56375,1.70312 l 0,-4.40775 c -0.70125,0 -0.85125,0 -1.90375,-0.1 -2.855,-0.30087 -4.7575,-0.40087 -6.21,-0.40087 -5.61001,0 -9.16625,2.80462 -9.16625,7.1625 0,2.0035 0.85125,3.80675 2.35375,4.90875 1.15249,0.85112 2.30375,1.352 4.80874,2.05325 1.5525,0.45062 2.60501,0.751 3.055,0.90137 0.75126,0.20063 1.40251,0.45113 2.00376,0.80125 0.45125,0.20063 0.80125,0.45113 1.10125,0.80175 0.55124,0.601 0.8525,1.40238 0.8525,2.25388 0,2.354 -2.10375,3.80612 -5.56,3.80612 -2.755,0 -5.46,-0.70062 -8.915,-2.25337 l 0,4.25737 m -24.34625,0 c 3.40625,0.90138 6.3625,1.30225 9.31625,1.30225 6.26125,0 10.2175,-3.05525 10.2175,-7.86387 0,-2.2035 -0.90125,-4.207 -2.55375,-5.35888 -1.40251,-1.00187 -2.655,-1.50287 -5.81,-2.3545 -2.905,-0.75087 -3.50625,-0.95162 -4.3575,-1.40225 -1.05125,-0.55087 -1.6525,-1.45262 -1.6525,-2.55475 0,-2.05325 1.8025,-3.25537 4.8575,-3.25537 2.10375,0 4.55875,0.55125 7.56375,1.70312 l 0,-4.40775 c -0.70125,0 -0.85125,0 -1.90375,-0.1 -2.855,-0.30087 -4.7575,-0.40087 -6.21,-0.40087 -5.61,0 -9.16625,2.80462 -9.16625,7.1625 0,2.0035 0.85125,3.80675 2.35375,4.90875 1.1525,0.85112 2.30375,1.352 4.80875,2.05325 1.5525,0.45062 2.60375,0.751 3.055,0.90137 0.75125,0.20063 1.4025,0.45113 2.00375,0.80125 0.45125,0.20063 0.80125,0.45113 1.10125,0.80175 0.55125,0.601 0.8525,1.40238 0.8525,2.25388 0,2.354 -2.10375,3.80612 -5.56,3.80612 -2.755,0 -5.46,-0.70062 -8.91625,-2.25337 l 0,4.25737 m -11.43375,0.75138 5.15875,0 c -0.05,-0.20063 -0.05,-0.40088 -0.05,-0.50088 -0.05,-0.80137 -0.1,-2.65487 -0.15,-5.60987 l -0.05,-6.31063 0.05,-6.11075 c 0.05,-3.15537 0.1,-5.109 0.15,-5.86037 0,-0.10013 0,-0.2505 0.05,-0.501 l -5.15875,0 c 0,0.2505 0,0.40087 0.05,0.501 0.05,0.8515 0.05,2.80512 0.10125,5.86037 l 0.1,6.11075 -0.1,6.31063 c 0,2.80512 -0.0512,4.708 -0.10125,5.60987 -0.05,0.1 -0.05,0.30025 -0.05,0.50088 z m -0.25,-32.30613 c 0,2.00338 0.95125,3.1055 2.70375,3.1055 1.95375,0 2.855,-1.002 2.855,-3.1055 0,-2.05375 -0.90125,-3.1055 -2.75375,-3.1055 -1.85375,0 -2.805,1.05175 -2.805,3.1055 m -38.29875,32.30613 5.60875,0 0.10125,-0.50088 1.8525,-7.16262 1.6525,-6.41113 c 1.55375,-5.7095 2.805,-10.418 3.40625,-12.32137 l 0.25,-0.95163 0.30125,1.102 1.4525,5.25938 c 1.6525,6.16062 2.30375,8.61475 3.55625,13.77337 0.70125,2.75488 1.20125,4.9585 1.6025,6.712 l 0.15,0.50088 5.66,0 0.1,-0.50088 c 0.50125,-1.60312 1.2525,-4.40775 2.30375,-8.3145 0.9025,-3.30562 1.60375,-5.91012 2.15375,-7.86375 l 2.505,-8.565 2.25375,-7.663 0.2,-0.501 -4.7075,0 -0.1,0.501 -1.5025,6.36075 -2.05375,8.26463 -1.55375,6.31112 -1.5025,5.309 -0.25,1.0015 c -0.15,-0.45062 -0.25,-0.751 -0.3,-0.95162 -0.1,-0.35063 -0.55125,-2.1035 -1.3025,-5.10838 l -1.65375,-6.41162 -1.9025,-8.16413 -1.6025,-6.61125 c -0.05,-0.10012 -0.05,-0.2505 -0.1,-0.501 l -6.01125,0 -0.10001,0.501 c -0.24999,1.25188 -0.75125,3.50625 -1.55249,6.86175 -1.05125,4.35788 -1.7525,7.11225 -2.05375,8.21438 l -1.60251,6.16112 -1.4025,5.2085 -0.25,0.95163 -0.30125,-1.0015 c -0.05,-0.30075 -0.50125,-2.00388 -1.35125,-5.10888 -0.80249,-3.05512 -1.30375,-5.059 -1.55374,-6.01075 l -1.90375,-8.01412 -1.7025,-7.26213 -0.10001,-0.501 -6.11,0 0.15,0.501 c 1.7525,5.5595 2.955,9.46625 4.8075,16.228 l 2.15376,7.61325 2.205,8.565 0.1,0.50088 m -38.1225,0 5.11,0 0,-0.50088 c -0.15125,-1.60312 -0.25125,-4.55812 -0.30125,-8.86575 l 0,-1.10162 c 0,-4.25725 0.20125,-5.86038 0.9525,-7.6635 0.95125,-2.40388 2.55375,-3.55575 4.7075,-3.55575 0.90125,0 1.85375,0.15 3.055,0.501 l 0,-3.60688 c -1.05126,-0.45075 -1.9025,-0.65087 -2.90501,-0.65087 -2.00375,0 -3.70625,0.8515 -4.8075,2.4545 -0.55125,0.751 -0.70125,1.05175 -1.35249,2.45412 l 0,-0.70112 0.05,-3.15575 0,-0.501 -4.50875,0 c 0.0513,0.2505 0.0513,0.40087 0.0513,0.501 0.05,0.8515 0.1,2.80512 0.15,5.86037 l 0.05,6.11075 -0.05,6.31063 c -0.05,2.80512 -0.1,4.708 -0.15,5.60987 0,0.1 0,0.30025 -0.0513,0.50088 m -7.505,-0.70163 0,-4.00637 c -2.755,1.252 -5.40874,1.85262 -8.11374,1.85262 -5.51,0 -8.06375,-3.105 -8.06375,-9.71637 l 0,-0.8515 0.55125,-0.0504 c 0.95125,-0.0497 3.405,-0.0497 7.3625,-0.0497 4.70749,0 7.5125,0 8.46374,0.0497 l 0.55125,0.0504 c 0.05,-0.90188 0.05,-1.30225 0.05,-2.15388 0,-3.456 -0.45,-5.25875 -1.7025,-6.86175 -1.6025,-2.0035 -4.4575,-3.00537 -8.415,-3.00537 -8.11375,0 -11.87,4.2075 -11.87,13.17275 0,8.66512 3.90625,12.82237 12.02,12.82237 3.05625,0 6.36125,-0.45075 9.16625,-1.2525 z m -15.9775,-15.627 c 0.3,-4.15662 2.25375,-5.95987 6.26125,-5.95987 4.05625,0 5.71,1.6025 5.71,5.60937 l 0,0.3505 -0.45125,0 c -0.85125,0.0504 -2.40375,0.0504 -4.6075,0.0504 l -0.8525,0 c -3.15499,0 -5.0075,0 -5.55874,-0.0504 l -0.50126,0 m -37.71499,16.32863 0.70125,0 c 1.5025,0 3.255,0.0499 5.25874,0.10012 2.405,0.0499 4.3575,0.0499 5.96001,0.0499 4.35874,0 7.31375,-0.65088 9.26625,-2.05375 3.55625,-2.55425 5.66,-7.91363 5.66,-14.52488 0,-7.16212 -2.00376,-12.57187 -5.61,-15.02587 -2.05376,-1.45263 -4.55751,-2.104 -8.11375,-2.104 -0.50125,0 -3.15626,0.0503 -7.81376,0.15037 l -5.30874,0 0,0.40088 c 0.05,0.90137 0.1,3.55613 0.15,7.96387 l 0.1,8.36425 -0.1,8.31438 c -0.05,4.40775 -0.1,7.0625 -0.15,7.96387 l 0,0.40088 z m 5.56,-3.55613 0,-0.40087 -0.10126,-5.81 -0.05,-6.91213 0,-1.05175 c 0,-1.35262 0,-3.70612 0.05,-6.962 0,-2.104 0.05,-3.65625 0.10126,-4.60787 l 0,-0.55075 c 1.25125,-0.20075 4.05625,-0.35113 5.91,-0.35113 6.71125,0 9.81624,4.25738 9.81624,13.62363 0,5.86025 -1.25125,9.96725 -3.65625,11.7705 -1.3025,0.95212 -3.55625,1.50287 -6.26,1.50287 l -2.75499,-0.0503 c -1.4025,-0.0499 -2.25375,-0.0499 -2.655,-0.15 -0.05,0 -0.15,0 -0.4,-0.0502"
       id="path70"
       style="fill:#231f20;fill-opacity:1;fill-rule:nonzero;stroke:none" />
  </g>
</svg>
