<?xml version='1.0' encoding='UTF-8'?>
<svg width="51.8mm" height="51.8mm" version="1.1" viewBox="0 0 51.8 51.8" xmlns="http://www.w3.org/2000/svg"><path d="M2.8,2.8H4.2V4.2H2.8zM4.2,2.8H5.6V4.2H4.2zM5.6,2.8H7V4.2H5.6zM7,2.8H8.4V4.2H7zM8.4,2.8H9.8V4.2H8.4zM9.8,2.8H11.2V4.2H9.8zM11.2,2.8H12.6V4.2H11.2zM15.4,2.8H16.8V4.2H15.4zM16.8,2.8H18.2V4.2H16.8zM18.2,2.8H19.6V4.2H18.2zM19.6,2.8H21V4.2H19.6zM21,2.8H22.4V4.2H21zM22.4,2.8H23.8V4.2H22.4zM26.6,2.8H28V4.2H26.6zM32.2,2.8H33.6V4.2H32.2zM33.6,2.8H35V4.2H33.6zM39.2,2.8H40.6V4.2H39.2zM40.6,2.8H42V4.2H40.6zM42,2.8H43.4V4.2H42zM43.4,2.8H44.8V4.2H43.4zM44.8,2.8H46.2V4.2H44.8zM46.2,2.8H47.6V4.2H46.2zM47.6,2.8H49V4.2H47.6zM2.8,4.2H4.2V5.6H2.8zM11.2,4.2H12.6V5.6H11.2zM14,4.2H15.4V5.6H14zM15.4,4.2H16.8V5.6H15.4zM18.2,4.2H19.6V5.6H18.2zM19.6,4.2H21V5.6H19.6zM28,4.2H29.4V5.6H28zM30.8,4.2H32.2V5.6H30.8zM36.4,4.2H37.8V5.6H36.4zM39.2,4.2H40.6V5.6H39.2zM47.6,4.2H49V5.6H47.6zM2.8,5.6H4.2V7H2.8zM5.6,5.6H7V7H5.6zM7,5.6H8.4V7H7zM8.4,5.6H9.8V7H8.4zM11.2,5.6H12.6V7H11.2zM14,5.6H15.4V7H14zM16.8,5.6H18.2V7H16.8zM18.2,5.6H19.6V7H18.2zM22.4,5.6H23.8V7H22.4zM23.8,5.6H25.2V7H23.8zM25.2,5.6H26.6V7H25.2zM32.2,5.6H33.6V7H32.2zM33.6,5.6H35V7H33.6zM39.2,5.6H40.6V7H39.2zM42,5.6H43.4V7H42zM43.4,5.6H44.8V7H43.4zM44.8,5.6H46.2V7H44.8zM47.6,5.6H49V7H47.6zM2.8,7H4.2V8.4H2.8zM5.6,7H7V8.4H5.6zM7,7H8.4V8.4H7zM8.4,7H9.8V8.4H8.4zM11.2,7H12.6V8.4H11.2zM14,7H15.4V8.4H14zM15.4,7H16.8V8.4H15.4zM19.6,7H21V8.4H19.6zM22.4,7H23.8V8.4H22.4zM23.8,7H25.2V8.4H23.8zM25.2,7H26.6V8.4H25.2zM28,7H29.4V8.4H28zM30.8,7H32.2V8.4H30.8zM33.6,7H35V8.4H33.6zM36.4,7H37.8V8.4H36.4zM39.2,7H40.6V8.4H39.2zM42,7H43.4V8.4H42zM43.4,7H44.8V8.4H43.4zM44.8,7H46.2V8.4H44.8zM47.6,7H49V8.4H47.6zM2.8,8.4H4.2V9.8H2.8zM5.6,8.4H7V9.8H5.6zM7,8.4H8.4V9.8H7zM8.4,8.4H9.8V9.8H8.4zM11.2,8.4H12.6V9.8H11.2zM16.8,8.4H18.2V9.8H16.8zM18.2,8.4H19.6V9.8H18.2zM19.6,8.4H21V9.8H19.6zM21,8.4H22.4V9.8H21zM22.4,8.4H23.8V9.8H22.4zM23.8,8.4H25.2V9.8H23.8zM25.2,8.4H26.6V9.8H25.2zM30.8,8.4H32.2V9.8H30.8zM32.2,8.4H33.6V9.8H32.2zM33.6,8.4H35V9.8H33.6zM39.2,8.4H40.6V9.8H39.2zM42,8.4H43.4V9.8H42zM43.4,8.4H44.8V9.8H43.4zM44.8,8.4H46.2V9.8H44.8zM47.6,8.4H49V9.8H47.6zM2.8,9.8H4.2V11.2H2.8zM11.2,9.8H12.6V11.2H11.2zM18.2,9.8H19.6V11.2H18.2zM23.8,9.8H25.2V11.2H23.8zM26.6,9.8H28V11.2H26.6zM28,9.8H29.4V11.2H28zM29.4,9.8H30.8V11.2H29.4zM33.6,9.8H35V11.2H33.6zM35,9.8H36.4V11.2H35zM36.4,9.8H37.8V11.2H36.4zM39.2,9.8H40.6V11.2H39.2zM47.6,9.8H49V11.2H47.6zM2.8,11.2H4.2V12.6H2.8zM4.2,11.2H5.6V12.6H4.2zM5.6,11.2H7V12.6H5.6zM7,11.2H8.4V12.6H7zM8.4,11.2H9.8V12.6H8.4zM9.8,11.2H11.2V12.6H9.8zM11.2,11.2H12.6V12.6H11.2zM14,11.2H15.4V12.6H14zM16.8,11.2H18.2V12.6H16.8zM19.6,11.2H21V12.6H19.6zM22.4,11.2H23.8V12.6H22.4zM25.2,11.2H26.6V12.6H25.2zM28,11.2H29.4V12.6H28zM30.8,11.2H32.2V12.6H30.8zM33.6,11.2H35V12.6H33.6zM36.4,11.2H37.8V12.6H36.4zM39.2,11.2H40.6V12.6H39.2zM40.6,11.2H42V12.6H40.6zM42,11.2H43.4V12.6H42zM43.4,11.2H44.8V12.6H43.4zM44.8,11.2H46.2V12.6H44.8zM46.2,11.2H47.6V12.6H46.2zM47.6,11.2H49V12.6H47.6zM14,12.6H15.4V14H14zM15.4,12.6H16.8V14H15.4zM16.8,12.6H18.2V14H16.8zM22.4,12.6H23.8V14H22.4zM23.8,12.6H25.2V14H23.8zM25.2,12.6H26.6V14H25.2zM28,12.6H29.4V14H28zM29.4,12.6H30.8V14H29.4zM30.8,12.6H32.2V14H30.8zM33.6,12.6H35V14H33.6zM35,12.6H36.4V14H35zM2.8,14H4.2V15.4H2.8zM11.2,14H12.6V15.4H11.2zM14,14H15.4V15.4H14zM16.8,14H18.2V15.4H16.8zM18.2,14H19.6V15.4H18.2zM21,14H22.4V15.4H21zM22.4,14H23.8V15.4H22.4zM26.6,14H28V15.4H26.6zM29.4,14H30.8V15.4H29.4zM33.6,14H35V15.4H33.6zM35,14H36.4V15.4H35zM36.4,14H37.8V15.4H36.4zM37.8,14H39.2V15.4H37.8zM39.2,14H40.6V15.4H39.2zM43.4,14H44.8V15.4H43.4zM44.8,14H46.2V15.4H44.8zM46.2,14H47.6V15.4H46.2zM2.8,15.4H4.2V16.8H2.8zM4.2,15.4H5.6V16.8H4.2zM5.6,15.4H7V16.8H5.6zM8.4,15.4H9.8V16.8H8.4zM12.6,15.4H14V16.8H12.6zM14,15.4H15.4V16.8H14zM15.4,15.4H16.8V16.8H15.4zM16.8,15.4H18.2V16.8H16.8zM18.2,15.4H19.6V16.8H18.2zM19.6,15.4H21V16.8H19.6zM21,15.4H22.4V16.8H21zM22.4,15.4H23.8V16.8H22.4zM23.8,15.4H25.2V16.8H23.8zM26.6,15.4H28V16.8H26.6zM28,15.4H29.4V16.8H28zM29.4,15.4H30.8V16.8H29.4zM32.2,15.4H33.6V16.8H32.2zM35,15.4H36.4V16.8H35zM42,15.4H43.4V16.8H42zM43.4,15.4H44.8V16.8H43.4zM44.8,15.4H46.2V16.8H44.8zM2.8,16.8H4.2V18.2H2.8zM5.6,16.8H7V18.2H5.6zM9.8,16.8H11.2V18.2H9.8zM11.2,16.8H12.6V18.2H11.2zM15.4,16.8H16.8V18.2H15.4zM18.2,16.8H19.6V18.2H18.2zM19.6,16.8H21V18.2H19.6zM21,16.8H22.4V18.2H21zM22.4,16.8H23.8V18.2H22.4zM23.8,16.8H25.2V18.2H23.8zM26.6,16.8H28V18.2H26.6zM30.8,16.8H32.2V18.2H30.8zM33.6,16.8H35V18.2H33.6zM37.8,16.8H39.2V18.2H37.8zM39.2,16.8H40.6V18.2H39.2zM42,16.8H43.4V18.2H42zM44.8,16.8H46.2V18.2H44.8zM46.2,16.8H47.6V18.2H46.2zM2.8,18.2H4.2V19.6H2.8zM7,18.2H8.4V19.6H7zM8.4,18.2H9.8V19.6H8.4zM12.6,18.2H14V19.6H12.6zM14,18.2H15.4V19.6H14zM15.4,18.2H16.8V19.6H15.4zM18.2,18.2H19.6V19.6H18.2zM19.6,18.2H21V19.6H19.6zM21,18.2H22.4V19.6H21zM23.8,18.2H25.2V19.6H23.8zM25.2,18.2H26.6V19.6H25.2zM26.6,18.2H28V19.6H26.6zM28,18.2H29.4V19.6H28zM29.4,18.2H30.8V19.6H29.4zM32.2,18.2H33.6V19.6H32.2zM36.4,18.2H37.8V19.6H36.4zM39.2,18.2H40.6V19.6H39.2zM40.6,18.2H42V19.6H40.6zM42,18.2H43.4V19.6H42zM43.4,18.2H44.8V19.6H43.4zM44.8,18.2H46.2V19.6H44.8zM46.2,18.2H47.6V19.6H46.2zM47.6,18.2H49V19.6H47.6zM2.8,19.6H4.2V21H2.8zM4.2,19.6H5.6V21H4.2zM8.4,19.6H9.8V21H8.4zM11.2,19.6H12.6V21H11.2zM15.4,19.6H16.8V21H15.4zM16.8,19.6H18.2V21H16.8zM19.6,19.6H21V21H19.6zM21,19.6H22.4V21H21zM26.6,19.6H28V21H26.6zM29.4,19.6H30.8V21H29.4zM32.2,19.6H33.6V21H32.2zM36.4,19.6H37.8V21H36.4zM39.2,19.6H40.6V21H39.2zM40.6,19.6H42V21H40.6zM4.2,21H5.6V22.4H4.2zM5.6,21H7V22.4H5.6zM7,21H8.4V22.4H7zM8.4,21H9.8V22.4H8.4zM9.8,21H11.2V22.4H9.8zM12.6,21H14V22.4H12.6zM15.4,21H16.8V22.4H15.4zM28,21H29.4V22.4H28zM36.4,21H37.8V22.4H36.4zM39.2,21H40.6V22.4H39.2zM46.2,21H47.6V22.4H46.2zM47.6,21H49V22.4H47.6zM2.8,22.4H4.2V23.8H2.8zM4.2,22.4H5.6V23.8H4.2zM7,22.4H8.4V23.8H7zM8.4,22.4H9.8V23.8H8.4zM11.2,22.4H12.6V23.8H11.2zM16.8,22.4H18.2V23.8H16.8zM18.2,22.4H19.6V23.8H18.2zM21,22.4H22.4V23.8H21zM22.4,22.4H23.8V23.8H22.4zM23.8,22.4H25.2V23.8H23.8zM25.2,22.4H26.6V23.8H25.2zM26.6,22.4H28V23.8H26.6zM28,22.4H29.4V23.8H28zM30.8,22.4H32.2V23.8H30.8zM36.4,22.4H37.8V23.8H36.4zM37.8,22.4H39.2V23.8H37.8zM39.2,22.4H40.6V23.8H39.2zM40.6,22.4H42V23.8H40.6zM43.4,22.4H44.8V23.8H43.4zM44.8,22.4H46.2V23.8H44.8zM46.2,22.4H47.6V23.8H46.2zM4.2,23.8H5.6V25.2H4.2zM12.6,23.8H14V25.2H12.6zM16.8,23.8H18.2V25.2H16.8zM19.6,23.8H21V25.2H19.6zM22.4,23.8H23.8V25.2H22.4zM25.2,23.8H26.6V25.2H25.2zM28,23.8H29.4V25.2H28zM30.8,23.8H32.2V25.2H30.8zM37.8,23.8H39.2V25.2H37.8zM43.4,23.8H44.8V25.2H43.4zM44.8,23.8H46.2V25.2H44.8zM47.6,23.8H49V25.2H47.6zM2.8,25.2H4.2V26.6H2.8zM5.6,25.2H7V26.6H5.6zM7,25.2H8.4V26.6H7zM11.2,25.2H12.6V26.6H11.2zM12.6,25.2H14V26.6H12.6zM14,25.2H15.4V26.6H14zM16.8,25.2H18.2V26.6H16.8zM21,25.2H22.4V26.6H21zM22.4,25.2H23.8V26.6H22.4zM23.8,25.2H25.2V26.6H23.8zM26.6,25.2H28V26.6H26.6zM33.6,25.2H35V26.6H33.6zM35,25.2H36.4V26.6H35zM37.8,25.2H39.2V26.6H37.8zM40.6,25.2H42V26.6H40.6zM42,25.2H43.4V26.6H42zM47.6,25.2H49V26.6H47.6zM9.8,26.6H11.2V28H9.8zM12.6,26.6H14V28H12.6zM15.4,26.6H16.8V28H15.4zM16.8,26.6H18.2V28H16.8zM19.6,26.6H21V28H19.6zM22.4,26.6H23.8V28H22.4zM23.8,26.6H25.2V28H23.8zM25.2,26.6H26.6V28H25.2zM28,26.6H29.4V28H28zM29.4,26.6H30.8V28H29.4zM30.8,26.6H32.2V28H30.8zM35,26.6H36.4V28H35zM39.2,26.6H40.6V28H39.2zM43.4,26.6H44.8V28H43.4zM44.8,26.6H46.2V28H44.8zM47.6,26.6H49V28H47.6zM2.8,28H4.2V29.4H2.8zM4.2,28H5.6V29.4H4.2zM7,28H8.4V29.4H7zM8.4,28H9.8V29.4H8.4zM9.8,28H11.2V29.4H9.8zM11.2,28H12.6V29.4H11.2zM14,28H15.4V29.4H14zM15.4,28H16.8V29.4H15.4zM19.6,28H21V29.4H19.6zM21,28H22.4V29.4H21zM22.4,28H23.8V29.4H22.4zM23.8,28H25.2V29.4H23.8zM26.6,28H28V29.4H26.6zM28,28H29.4V29.4H28zM29.4,28H30.8V29.4H29.4zM32.2,28H33.6V29.4H32.2zM33.6,28H35V29.4H33.6zM35,28H36.4V29.4H35zM36.4,28H37.8V29.4H36.4zM37.8,28H39.2V29.4H37.8zM40.6,28H42V29.4H40.6zM43.4,28H44.8V29.4H43.4zM44.8,28H46.2V29.4H44.8zM46.2,28H47.6V29.4H46.2zM47.6,28H49V29.4H47.6zM2.8,29.4H4.2V30.8H2.8zM5.6,29.4H7V30.8H5.6zM15.4,29.4H16.8V30.8H15.4zM19.6,29.4H21V30.8H19.6zM21,29.4H22.4V30.8H21zM23.8,29.4H25.2V30.8H23.8zM25.2,29.4H26.6V30.8H25.2zM29.4,29.4H30.8V30.8H29.4zM33.6,29.4H35V30.8H33.6zM35,29.4H36.4V30.8H35zM42,29.4H43.4V30.8H42zM43.4,29.4H44.8V30.8H43.4zM44.8,29.4H46.2V30.8H44.8zM46.2,29.4H47.6V30.8H46.2zM2.8,30.8H4.2V32.2H2.8zM4.2,30.8H5.6V32.2H4.2zM5.6,30.8H7V32.2H5.6zM11.2,30.8H12.6V32.2H11.2zM12.6,30.8H14V32.2H12.6zM16.8,30.8H18.2V32.2H16.8zM19.6,30.8H21V32.2H19.6zM22.4,30.8H23.8V32.2H22.4zM28,30.8H29.4V32.2H28zM32.2,30.8H33.6V32.2H32.2zM35,30.8H36.4V32.2H35zM36.4,30.8H37.8V32.2H36.4zM37.8,30.8H39.2V32.2H37.8zM42,30.8H43.4V32.2H42zM43.4,30.8H44.8V32.2H43.4zM46.2,30.8H47.6V32.2H46.2zM2.8,32.2H4.2V33.6H2.8zM7,32.2H8.4V33.6H7zM8.4,32.2H9.8V33.6H8.4zM9.8,32.2H11.2V33.6H9.8zM16.8,32.2H18.2V33.6H16.8zM18.2,32.2H19.6V33.6H18.2zM19.6,32.2H21V33.6H19.6zM26.6,32.2H28V33.6H26.6zM32.2,32.2H33.6V33.6H32.2zM35,32.2H36.4V33.6H35zM37.8,32.2H39.2V33.6H37.8zM40.6,32.2H42V33.6H40.6zM42,32.2H43.4V33.6H42zM43.4,32.2H44.8V33.6H43.4zM2.8,33.6H4.2V35H2.8zM5.6,33.6H7V35H5.6zM11.2,33.6H12.6V35H11.2zM12.6,33.6H14V35H12.6zM14,33.6H15.4V35H14zM16.8,33.6H18.2V35H16.8zM19.6,33.6H21V35H19.6zM22.4,33.6H23.8V35H22.4zM26.6,33.6H28V35H26.6zM29.4,33.6H30.8V35H29.4zM32.2,33.6H33.6V35H32.2zM37.8,33.6H39.2V35H37.8zM39.2,33.6H40.6V35H39.2zM46.2,33.6H47.6V35H46.2zM2.8,35H4.2V36.4H2.8zM5.6,35H7V36.4H5.6zM7,35H8.4V36.4H7zM8.4,35H9.8V36.4H8.4zM12.6,35H14V36.4H12.6zM14,35H15.4V36.4H14zM21,35H22.4V36.4H21zM23.8,35H25.2V36.4H23.8zM25.2,35H26.6V36.4H25.2zM29.4,35H30.8V36.4H29.4zM30.8,35H32.2V36.4H30.8zM33.6,35H35V36.4H33.6zM37.8,35H39.2V36.4H37.8zM40.6,35H42V36.4H40.6zM43.4,35H44.8V36.4H43.4zM44.8,35H46.2V36.4H44.8zM46.2,35H47.6V36.4H46.2zM47.6,35H49V36.4H47.6zM2.8,36.4H4.2V37.8H2.8zM4.2,36.4H5.6V37.8H4.2zM9.8,36.4H11.2V37.8H9.8zM11.2,36.4H12.6V37.8H11.2zM12.6,36.4H14V37.8H12.6zM14,36.4H15.4V37.8H14zM15.4,36.4H16.8V37.8H15.4zM19.6,36.4H21V37.8H19.6zM25.2,36.4H26.6V37.8H25.2zM36.4,36.4H37.8V37.8H36.4zM37.8,36.4H39.2V37.8H37.8zM39.2,36.4H40.6V37.8H39.2zM40.6,36.4H42V37.8H40.6zM42,36.4H43.4V37.8H42zM43.4,36.4H44.8V37.8H43.4zM46.2,36.4H47.6V37.8H46.2zM14,37.8H15.4V39.2H14zM18.2,37.8H19.6V39.2H18.2zM19.6,37.8H21V39.2H19.6zM21,37.8H22.4V39.2H21zM22.4,37.8H23.8V39.2H22.4zM23.8,37.8H25.2V39.2H23.8zM25.2,37.8H26.6V39.2H25.2zM26.6,37.8H28V39.2H26.6zM28,37.8H29.4V39.2H28zM29.4,37.8H30.8V39.2H29.4zM30.8,37.8H32.2V39.2H30.8zM32.2,37.8H33.6V39.2H32.2zM36.4,37.8H37.8V39.2H36.4zM42,37.8H43.4V39.2H42zM44.8,37.8H46.2V39.2H44.8zM47.6,37.8H49V39.2H47.6zM2.8,39.2H4.2V40.6H2.8zM4.2,39.2H5.6V40.6H4.2zM5.6,39.2H7V40.6H5.6zM7,39.2H8.4V40.6H7zM8.4,39.2H9.8V40.6H8.4zM9.8,39.2H11.2V40.6H9.8zM11.2,39.2H12.6V40.6H11.2zM15.4,39.2H16.8V40.6H15.4zM16.8,39.2H18.2V40.6H16.8zM22.4,39.2H23.8V40.6H22.4zM23.8,39.2H25.2V40.6H23.8zM26.6,39.2H28V40.6H26.6zM33.6,39.2H35V40.6H33.6zM35,39.2H36.4V40.6H35zM36.4,39.2H37.8V40.6H36.4zM39.2,39.2H40.6V40.6H39.2zM42,39.2H43.4V40.6H42zM44.8,39.2H46.2V40.6H44.8zM46.2,39.2H47.6V40.6H46.2zM2.8,40.6H4.2V42H2.8zM11.2,40.6H12.6V42H11.2zM18.2,40.6H19.6V42H18.2zM19.6,40.6H21V42H19.6zM22.4,40.6H23.8V42H22.4zM23.8,40.6H25.2V42H23.8zM26.6,40.6H28V42H26.6zM28,40.6H29.4V42H28zM29.4,40.6H30.8V42H29.4zM32.2,40.6H33.6V42H32.2zM33.6,40.6H35V42H33.6zM35,40.6H36.4V42H35zM36.4,40.6H37.8V42H36.4zM42,40.6H43.4V42H42zM43.4,40.6H44.8V42H43.4zM44.8,40.6H46.2V42H44.8zM2.8,42H4.2V43.4H2.8zM5.6,42H7V43.4H5.6zM7,42H8.4V43.4H7zM8.4,42H9.8V43.4H8.4zM11.2,42H12.6V43.4H11.2zM15.4,42H16.8V43.4H15.4zM18.2,42H19.6V43.4H18.2zM25.2,42H26.6V43.4H25.2zM29.4,42H30.8V43.4H29.4zM30.8,42H32.2V43.4H30.8zM32.2,42H33.6V43.4H32.2zM33.6,42H35V43.4H33.6zM36.4,42H37.8V43.4H36.4zM37.8,42H39.2V43.4H37.8zM39.2,42H40.6V43.4H39.2zM40.6,42H42V43.4H40.6zM42,42H43.4V43.4H42zM43.4,42H44.8V43.4H43.4zM46.2,42H47.6V43.4H46.2zM47.6,42H49V43.4H47.6zM2.8,43.4H4.2V44.8H2.8zM5.6,43.4H7V44.8H5.6zM7,43.4H8.4V44.8H7zM8.4,43.4H9.8V44.8H8.4zM11.2,43.4H12.6V44.8H11.2zM15.4,43.4H16.8V44.8H15.4zM18.2,43.4H19.6V44.8H18.2zM26.6,43.4H28V44.8H26.6zM28,43.4H29.4V44.8H28zM35,43.4H36.4V44.8H35zM36.4,43.4H37.8V44.8H36.4zM37.8,43.4H39.2V44.8H37.8zM40.6,43.4H42V44.8H40.6zM42,43.4H43.4V44.8H42zM43.4,43.4H44.8V44.8H43.4zM44.8,43.4H46.2V44.8H44.8zM47.6,43.4H49V44.8H47.6zM2.8,44.8H4.2V46.2H2.8zM5.6,44.8H7V46.2H5.6zM7,44.8H8.4V46.2H7zM8.4,44.8H9.8V46.2H8.4zM11.2,44.8H12.6V46.2H11.2zM15.4,44.8H16.8V46.2H15.4zM16.8,44.8H18.2V46.2H16.8zM19.6,44.8H21V46.2H19.6zM23.8,44.8H25.2V46.2H23.8zM29.4,44.8H30.8V46.2H29.4zM35,44.8H36.4V46.2H35zM36.4,44.8H37.8V46.2H36.4zM37.8,44.8H39.2V46.2H37.8zM40.6,44.8H42V46.2H40.6zM42,44.8H43.4V46.2H42zM43.4,44.8H44.8V46.2H43.4zM44.8,44.8H46.2V46.2H44.8zM46.2,44.8H47.6V46.2H46.2zM47.6,44.8H49V46.2H47.6zM2.8,46.2H4.2V47.6H2.8zM11.2,46.2H12.6V47.6H11.2zM16.8,46.2H18.2V47.6H16.8zM18.2,46.2H19.6V47.6H18.2zM21,46.2H22.4V47.6H21zM28,46.2H29.4V47.6H28zM33.6,46.2H35V47.6H33.6zM37.8,46.2H39.2V47.6H37.8zM40.6,46.2H42V47.6H40.6zM42,46.2H43.4V47.6H42zM43.4,46.2H44.8V47.6H43.4zM44.8,46.2H46.2V47.6H44.8zM2.8,47.6H4.2V49H2.8zM4.2,47.6H5.6V49H4.2zM5.6,47.6H7V49H5.6zM7,47.6H8.4V49H7zM8.4,47.6H9.8V49H8.4zM9.8,47.6H11.2V49H9.8zM11.2,47.6H12.6V49H11.2zM14,47.6H15.4V49H14zM15.4,47.6H16.8V49H15.4zM16.8,47.6H18.2V49H16.8zM19.6,47.6H21V49H19.6zM21,47.6H22.4V49H21zM22.4,47.6H23.8V49H22.4zM23.8,47.6H25.2V49H23.8zM26.6,47.6H28V49H26.6zM28,47.6H29.4V49H28zM33.6,47.6H35V49H33.6zM35,47.6H36.4V49H35zM36.4,47.6H37.8V49H36.4zM40.6,47.6H42V49H40.6zM46.2,47.6H47.6V49H46.2z" id="qr-path" fill="#000000" fill-opacity="1" fill-rule="nonzero" stroke="none"/></svg>